<svg xmlns="http://www.w3.org/2000/svg" viewBox="0 0 322.62 35.38">
  <defs>
    <style>
      .cls-1 {
        fill: #ed1c24;
      }

      .cls-2 {
        fill: #f7941d;
      }

      .cls-3 {
        fill: #fff200;
      }

      .cls-4 {
        fill: #8dc63f;
      }

      .cls-5 {
        fill: #00a651;
      }

      .cls-6 {
        fill: #00a99d;
      }

      .cls-7 {
        fill: #00aeef;
      }

      .cls-8 {
        fill: #0072bc;
      }

      .cls-9 {
        fill: #2e3192;
      }

      .cls-10 {
        fill: #92278f;
      }

      .cls-11 {
        fill: #ec008c;
      }

      .cls-12 {
        fill: #ed145b;
      }

      .cls-13 {
        fill: #231f20;
      }
    </style>
  </defs>
  <title>ct-logo</title>
  <g id="Layer_2" data-name="Layer 2">
    <g id="notes">
      <circle class="cls-1" cx="12.39" cy="18.39" r="6.6"/>
      <circle class="cls-2" cx="47.31" cy="18.39" r="6.6"/>
      <circle class="cls-3" cx="80.3" cy="18.39" r="6.6"/>
      <circle class="cls-4" cx="111.42" cy="18.39" r="6.6"/>
      <circle class="cls-5" cx="140.81" cy="18.39" r="6.6"/>
      <circle class="cls-6" cx="168.55" cy="18.39" r="6.6"/>
      <circle class="cls-7" cx="194.72" cy="18.39" r="6.6"/>
      <circle class="cls-8" cx="219.41" cy="18.39" r="6.94"/>
      <circle class="cls-9" cx="242.76" cy="18.39" r="6.6"/>
      <circle class="cls-10" cx="264.74" cy="18.39" r="6.6"/>
      <circle class="cls-11" cx="285.53" cy="18.39" r="6.6"/>
      <circle class="cls-12" cx="305.15" cy="18.39" r="6.6"/>
    </g>
    <g>
      <path class="cls-13" d="M26.25,15.18c0-4.56,2.55-6,5-6s4.77,1.3,4.93,5.57v.4H34.58l0-.37c-.18-3.07-1.64-4-3.29-4s-3.38,1.06-3.38,4.63v5.31c0,3.58,1.59,4.64,3.38,4.64,1.64,0,3.08-1,3.29-4l0-.44h1.61v.38c-.15,4.28-2.58,5.59-4.92,5.59s-5-1.4-5-6Z"/>
      <path class="cls-13" d="M69.12,9.49V26.76H67.51V18.67h-6v8.09H59.92V9.49h1.61v7.63h6V9.49Z"/>
      <path class="cls-13" d="M96,9.44c2.46,0,5.18,1.06,5.18,4.45v.74a3.91,3.91,0,0,1-3.13,4l3.33,8.1H99.65l-3.11-7.63h-3v7.63H92V9.44Zm3.61,4.7c0-2.52-1.75-3.15-3.41-3.15H93.59v6.54h2.59c1.65,0,3.41-.68,3.41-3.15Z"/>
      <path class="cls-13" d="M121.25,15.18c0-4.56,2.55-6,5-6s5,1.39,5,6v5.75c0,4.59-2.63,6-5,6s-5-1.4-5-6Zm8.42.22c0-3.57-1.65-4.63-3.4-4.63s-3.37,1.06-3.37,4.63v5.31c0,3.58,1.58,4.64,3.37,4.64s3.4-1.06,3.4-4.64Z"/>
      <path class="cls-13" d="M161,9.44V26.71h-1.57V13.37l-4.19,13.34h-1.11l-4.2-13.34V26.71h-1.56V9.44h1.91l4.4,14.05,4.41-14Z"/>
      <path class="cls-13" d="M184.07,21.45h-4.84l-1.41,5.26h-1.61l4.44-17.27h2l4.45,17.27h-1.61Zm-.24-1.62-2.18-8.43-2.19,8.43Z"/>
      <path class="cls-13" d="M211.39,11h-3.61V26.71h-1.61V11h-3.6V9.44h8.82Z"/>
      <path class="cls-13" d="M226.26,15.18c0-4.56,2.55-6,5-6s5,1.39,5,6v5.75c0,4.59-2.62,6-5,6s-5-1.4-5-6Zm8.42.22c0-3.57-1.66-4.63-3.4-4.63s-3.38,1.06-3.38,4.63v5.31c0,3.58,1.59,4.64,3.38,4.64s3.4-1.06,3.4-4.64Z"/>
      <path class="cls-13" d="M258.56,9.44V26.71H257l-6.42-13.65V26.71H249V9.44h1.59L257,23.08V9.44Z"/>
      <path class="cls-13" d="M273,11v6.08h5.62v1.55H273v6.53h5.87v1.56h-7.48V9.44h7.48V11Z"/>
    </g>
  </g>
</svg>
