<svg id="Layer_1" data-name="Layer 1" xmlns="http://www.w3.org/2000/svg" viewBox="0 0 205.89 205.89">
  <g>
    <path d="M48.18,78.76V20.68a6.23,6.23,0,0,1,6.08-6.07,6.13,6.13,0,0,1,6.27,6.07v18a59.4,59.4,0,0,1,47.56-24.08c33.59,0,60.31,27.72,60.31,61.72,0,33.8-26.72,62.13-60.31,62.13A58.84,58.84,0,0,1,60.73,114v71.23a6.17,6.17,0,0,1-12.34,0V78.76Zm12.55-2.43c0,27.53,21.66,49.59,47.36,49.79,26.51-.2,47.76-22.47,47.76-49.79S134.4,27,108.09,27C83,27,61.74,47.8,60.73,74.31v2Z" fill="#cd4a9b"/>
    <path d="M104.86,26.06c32.79,0,59.1,28.54,59.1,62.33s-26.11,62.34-59.1,62.34c-32.58,0-59.09-28.54-59.09-62.34C46,54.4,72.28,26.06,104.86,26.06Zm0,112.32c25.5,0,46.75-22.46,46.75-50.19S130.16,37.8,104.86,37.8,58.12,60.47,58.12,88.19,79.37,138.38,104.86,138.38Z" fill="#ff931f"/>
    <path d="M96.59,34.92c32.78,0,59.09,28.53,59.09,62.33s-26.1,62.33-59.09,62.33c-32.58,0-59.1-28.54-59.1-62.33C37.7,63.45,64,34.92,96.59,34.92Zm0,112.31c25.5,0,46.75-22.46,46.75-50.18s-21.45-50.4-46.75-50.4S49.84,69.52,49.84,97.25,71.09,147.23,96.59,147.23Z" fill="#9be887"/>
    <path d="M40.29,140.93a6.1,6.1,0,0,1,8.7-.81c8.7,6.27,22.46,14.57,38.05,14.57,9.71,0,18-3,23.67-7.69,6.08-4.05,9.31-9.72,9.31-15.18-.2-5.87-2.63-9.92-8.9-15.18-5.26-4-14.17-7.08-26.51-9.1l-.2-.41c-11.14-2-21-4.65-28.13-9.71C48.38,92.76,42.72,84.67,42.72,75c0-9.91,5.66-18.62,13.56-24.48,7.28-5.06,17.8-8.3,30.55-8.3,16,0,27.53,7.28,37,13.56a6.47,6.47,0,0,1,1.82,8.7,6,6,0,0,1-8.3,1.82c-9.1-6.07-18.21-12.55-30.56-12.55-10.11,0-18.21,2.84-23.67,7.09-5.06,4-7.9,9.1-7.9,14.16s2.23,8.71,7.09,12.55c5.66,3.85,14,6.88,25.5,8.7h.6a87.86,87.86,0,0,1,30.36,10.12,31.07,31.07,0,0,1,14,25.5c0,10.52-5.87,18.82-14.16,25.1a51.47,51.47,0,0,1-31,9.91c-20.64-.2-36.42-9.51-46.54-17.6C38.67,146.8,38.26,143.56,40.29,140.93Z" fill="#fff200"/>
    <path d="M95.45,73a6.53,6.53,0,0,1-6.07,6.08h-16v90.86c0,6.07,6.07,9.11,9.1,9.11s6.28,3.24,6.28,6.27-3.24,6.07-6.28,6.07c-12.54,0-21.85-9.1-21.85-21.65V79.27H45.06c-6.07,0-6.07-3-6.07-6.07s0-6.08,6.07-6.08H60.65V20.58a6.52,6.52,0,0,1,6.07-6.07c3.24,0,6.68,3,6.68,6.07V66.92h16A6.53,6.53,0,0,1,95.45,73Z" fill="#00aeef"/>
  </g>
</svg>
